<?xml version="1.0" standalone="no"?>
<!DOCTYPE svg PUBLIC "-//W3C//DTD SVG 20010904//EN"
 "http://www.w3.org/TR/2001/REC-SVG-20010904/DTD/svg10.dtd">
<svg version="1.0" xmlns="http://www.w3.org/2000/svg"
 width="360.000000pt" height="360.000000pt" viewBox="0 0 360.000000 360.000000"
 preserveAspectRatio="xMidYMid meet">

<g transform="translate(0.000000,360.000000) scale(0.100000,-0.100000)"
fill="#000000" stroke="none">
<path d="M1508 3530 c-155 -12 -226 -59 -238 -157 -5 -45 -6 -46 -56 -63 -120
-39 -203 -114 -231 -209 -13 -46 -15 -95 -10 -310 6 -317 15 -371 64 -417 20
-19 37 -33 39 -31 2 1 7 93 13 202 7 159 14 214 31 270 28 89 79 191 141 280
81 117 66 110 145 70 39 -19 108 -44 154 -56 73 -19 99 -20 209 -14 231 13
253 12 326 -24 77 -38 169 -120 230 -205 43 -60 43 -63 60 -201 23 -192 24
-198 40 -219 13 -17 15 -17 31 -1 9 9 27 20 39 25 22 8 23 15 30 182 14 343
-34 496 -210 675 -115 116 -151 133 -377 178 -181 36 -237 39 -430 25z"/>
<path d="M2365 1265 c54 -70 55 -81 55 -697 l0 -568 590 0 590 0 0 319 0 319
-40 53 c-22 30 -52 63 -68 75 -15 11 -236 105 -492 208 -443 178 -467 189
-515 235 -42 41 -119 91 -140 91 -3 0 6 -16 20 -35z"/>
<path d="M1075 1244 c-22 -15 -49 -35 -60 -44 -11 -10 -48 -30 -82 -44 -35
-14 -181 -82 -325 -149 -145 -68 -308 -143 -363 -167 -116 -51 -167 -80 -213
-123 l-32 -31 0 -343 0 -343 575 0 574 0 -5 48 c-16 160 -65 1000 -62 1062 2
51 10 89 24 118 12 23 19 42 15 42 -3 0 -24 -12 -46 -26z"/>
<path d="M1691 648 c-86 -32 -168 -96 -208 -159 l-34 -56 60 -121 c76 -152
104 -232 95 -278 l-6 -34 146 0 146 0 0 39 c0 50 60 223 112 323 l40 77 -27
45 c-33 56 -92 108 -160 141 -85 42 -105 45 -164 23z"/>
</g>
</svg>
